Coordinates
version=1
nRows=16
nColumns=22
inDegrees=yes

Units are S.I. units (second, meters, Newtons, ...)
If the header above contains a line with 'inDegrees', this indicates whether rotational values are in degrees (yes) or radians (no).

endheader
time	pelvis_tilt	pelvis_list	pelvis_rotation	pelvis_tx	pelvis_ty	pelvis_tz	hip_flexion_r	hip_adduction_r	hip_rotation_r	knee_angle_r	ankle_angle_r	subtalar_angle_r	hip_flexion_l	hip_adduction_l	hip_rotation_l	knee_angle_l	ankle_angle_l	subtalar_angle_l	lumbar_extension	lumbar_bending	lumbar_rotation
      1.87000000	      5.00070692	     -2.43671378	     65.00832469	      0.81691353	      1.04433469	      0.51574876	     21.00967858	      5.84602731	     10.62594979	    -15.50361185	      4.16465586	      9.37859037	    -11.06446646	      3.53183390	     19.46127592	    -27.05592648	     12.43574013	     -4.57000998	     -3.46009743	      1.52422246	    -12.69011292
      1.88000000	      5.42059384	     -2.41840448	     65.97872828	      0.82125523	      1.04520109	      0.50555772	     20.77853866	      6.10201424	     10.33638681	    -16.58100461	      4.10715879	      9.56281302	    -10.37105827	      3.16329131	     18.94967389	    -29.53449705	     10.68991242	     -2.33659927	     -3.42746443	      2.00987406	    -12.89122102
      1.89000000	      5.83034013	     -2.36172080	     66.92771553	      0.82551985	      1.04624730	      0.49536058	     20.43578656	      6.31164119	      9.93391129	    -17.50067439	      4.23810702	      9.68940926	     -9.58435084	      2.78872749	     18.29145867	    -32.09992940	      8.64556528	      0.11758565	     -3.42090957	      2.45653374	    -13.00125682
      1.90000000	      6.22785438	     -2.28194664	     67.88121641	      0.82965260	      1.04742254	      0.48521322	     19.97786081	      6.48148093	      9.42139365	    -18.22270253	      4.51004519	      9.66835392	     -8.67901018	      2.39140021	     17.51658844	    -34.74569461	      6.36005480	      2.63118741	     -3.43164304	      2.86868492	    -13.02702275
      1.91000000	      6.61003369	     -2.18614226	     68.84912138	      0.83365037	      1.04868745	      0.47522245	     19.41040964	      6.62385618	      8.81695324	    -18.73411828	      4.85893438	      9.44999719	     -7.63773938	      1.96426239	     16.65710228	    -37.47109656	      3.89690959	      5.00204408	     -3.46186311	      3.23834121	    -12.98953633
      1.92000000	      6.98779033	     -2.09370101	     69.86046601	      0.83745445	      1.04999138	      0.46544393	     18.74775366	      6.75285521	      8.09316183	    -19.02067702	      5.22494067	      9.03878925	     -6.43388832	      1.48592748	     15.75974865	    -40.28680898	      1.32168150	      7.02775055	     -3.50132577	      3.58687834	    -12.90994126
      1.93000000	      7.33757663	     -1.99172438	     70.87771120	      0.84112066	      1.05133737	      0.45595461	     17.99764333	      6.86606278	      7.33170899	    -19.10381256	      5.57710320	      8.46953062	     -5.08822657	      0.99440284	     14.84602520	    -43.16115106	     -1.33824734	      8.69809280	     -3.56139930	      3.87909379	    -12.76076499
      1.94000000	      7.70282194	     -1.90825743	     71.94115749	      0.84460247	      1.05266388	      0.44674896	     17.19277893	      7.00142045	      6.43580194	    -19.00549036	      5.88782676	      7.80581156	     -3.58799022	      0.43678898	     13.97024598	    -46.09850954	     -3.98727341	      9.85925103	     -3.62286044	      4.17735052	    -12.59110154
      1.95000000	      8.08611372	     -1.81850643	     73.01702770	      0.84795470	      1.05399872	      0.43781790	     16.32130160	      7.17083702	      5.47820239	    -18.75482161	      6.16123558	      7.16781086	     -1.99432535	     -0.16849230	     13.15114848	    -49.03985874	     -6.56067696	     10.61859868	     -3.70962039	      4.47665437	    -12.37880211
      1.96000000	      8.43234888	     -1.72462023	     74.04380753	      0.85126141	      1.05532115	      0.42919790	     15.43338201	      7.34813580	      4.59157279	    -18.41505727	      6.39362355	      6.47958535	     -0.32839594	     -0.74468803	     12.39352601	    -51.92014307	     -8.97514201	     11.21662506	     -3.80463513	      4.71431398	    -12.08139697
      1.97000000	      8.75343777	     -1.61029439	     75.00231647	      0.85452372	      1.05666572	      0.42078313	     14.51584316	      7.53866227	      3.78889785	    -18.01270923	      6.60606327	      5.86211087	      1.34052122	     -1.28584499	     11.69675336	    -54.66806983	    -11.09772933	     11.65942989	     -3.91852634	      4.91018917	    -11.68888348
      1.98000000	      9.02721525	     -1.47877547	     75.87524649	      0.85776383	      1.05802279	      0.41253904	     13.59765487	      7.72257735	      3.10186039	    -17.59297298	      6.81775408	      5.30801548	      2.98224553	     -1.75778636	     11.06173032	    -57.22860757	    -12.79710703	     11.95930724	     -4.03959606	      5.04060628	    -11.20036031
      1.99000000	      9.25485009	     -1.31985338	     76.66025618	      0.86092941	      1.05940342	      0.40442950	     12.67908753	      7.89102349	      2.53895772	    -17.18412266	      7.02599344	      4.86735256	      4.55900212	     -2.14176607	     10.49531993	    -59.57171337	    -13.96214632	     12.05386383	     -4.18385052	      5.11616032	    -10.61901076
      2.00000000	      9.41672885	     -1.14387027	     77.35640741	      0.86401999	      1.06078076	      0.39642598	     11.78153622	      8.02104249	      2.08740952	    -16.80374097	      7.24525312	      4.49015133	      6.06912711	     -2.42803348	      9.95929177	    -61.67279040	    -14.54033835	     11.82072407	     -4.33196241	      5.11997244	     -9.97604855
      2.01000000	      9.50803381	     -0.94188984	     77.98032530	      0.86697323	      1.06216067	      0.38852358	     10.89647965	      8.09529833	      1.73225461	    -16.45577504	      7.46797111	      4.17646484	      7.49740587	     -2.59914057	      9.46505859	    -63.52401472	    -14.57834366	     11.12596798	     -4.50134412	      5.05115391	     -9.27989266
      2.02000000	      9.57888136	     -0.71831349	     78.56029667	      0.86975361	      1.06351406	      0.38070209	     10.00608822	      8.15725061	      1.42607535	    -16.11770133	      7.68762581	      3.93532211	      8.84487338	     -2.71770723	      9.01529961	    -65.14124496	    -14.08672561	     10.05973674	     -4.69954551	      4.97330889	     -8.56784861
